<svg width="24" height="24" viewBox="0 0 24 24" fill="none" xmlns="http://www.w3.org/2000/svg">
<path d="M20.781 3.219C20.8508 3.28867 20.9063 3.37143 20.9441 3.46255C20.9819 3.55367 21.0013 3.65135 21.0013 3.75C21.0013 3.84865 20.9819 3.94633 20.9441 4.03745C20.9063 4.12857 20.8508 4.21133 20.781 4.281L16.0605 9H18.7545C18.9534 9 19.1442 9.07902 19.2848 9.21967C19.4255 9.36032 19.5045 9.55109 19.5045 9.75C19.5045 9.94891 19.4255 10.1397 19.2848 10.2803C19.1442 10.421 18.9534 10.5 18.7545 10.5H14.25C14.0511 10.5 13.8603 10.421 13.7197 10.2803C13.579 10.1397 13.5 9.94891 13.5 9.75V5.25C13.5 5.05109 13.579 4.86032 13.7197 4.71967C13.8603 4.57902 14.0511 4.5 14.25 4.5C14.4489 4.5 14.6397 4.57902 14.7803 4.71967C14.921 4.86032 15 5.05109 15 5.25V7.9395L19.7205 3.219C19.8611 3.0784 20.0519 2.99941 20.2507 2.99941C20.4496 2.99941 20.6404 3.0784 20.781 3.219ZM6.561 3.18C7.17672 2.94852 7.8569 2.95664 8.46692 3.20275C9.07693 3.44887 9.57231 3.91505 9.855 4.509L10.7325 6.351C10.9154 6.73551 10.9854 7.164 10.9344 7.58671C10.8834 8.00942 10.7135 8.40899 10.4445 8.739L9.027 10.479C9.047 10.585 9.0765 10.713 9.1155 10.863C9.228 11.289 9.42 11.8485 9.741 12.3975C10.0891 12.987 10.5332 13.5143 11.055 13.9575L13.314 13.542C13.6803 13.4746 14.0577 13.4992 14.4122 13.6136C14.7666 13.728 15.0872 13.9287 15.345 14.1975L16.5585 15.4635C16.7981 15.7136 16.9858 16.0085 17.1109 16.3315C17.236 16.6544 17.2959 16.9989 17.2873 17.3451C17.2787 17.6913 17.2016 18.0324 17.0606 18.3487C16.9195 18.665 16.7173 18.9502 16.4655 19.188L16.0215 19.608C14.3325 21.2025 11.7015 21.543 9.819 19.9785C8.409 18.8055 6.717 17.1585 5.442 15.159C4.032 12.9435 3.372 10.314 3.06 8.334C2.7045 6.075 4.14 4.089 6.1665 3.3285L6.561 3.18ZM10.4205 15.3675L10.419 15.366L10.4145 15.363L10.3995 15.3525C10.334 15.3051 10.2705 15.255 10.209 15.2025C9.50415 14.6301 8.90683 13.9368 8.445 13.155C7.94963 12.297 7.62563 11.351 7.491 10.3695L7.4895 10.35V10.3425L8.2335 10.2645L7.488 10.3395C7.46813 10.1419 7.52747 9.94443 7.653 9.7905L9.282 7.7895C9.37148 7.67959 9.42799 7.54659 9.44498 7.40588C9.46197 7.26518 9.43875 7.12254 9.378 6.9945L8.5005 5.151C8.37945 4.89677 8.16746 4.69718 7.90641 4.59165C7.64535 4.48612 7.35422 4.48232 7.0905 4.581L6.6945 4.731C5.217 5.286 4.3155 6.66 4.542 8.097C4.8405 9.9885 5.457 12.387 6.708 14.352C7.8675 16.1715 9.4335 17.706 10.7775 18.822C11.9835 19.824 13.761 19.677 14.9925 18.516L15.435 18.096C15.5429 17.9941 15.6296 17.8719 15.6901 17.7364C15.7506 17.6009 15.7837 17.4548 15.7874 17.3064C15.7912 17.1581 15.7656 17.0105 15.712 16.8721C15.6585 16.7336 15.5781 16.6072 15.4755 16.5L14.262 15.234C14.1762 15.1444 14.0694 15.0775 13.9514 15.0392C13.8333 15.001 13.7076 14.9927 13.5855 15.015L10.9905 15.492C10.8919 15.5102 10.7906 15.5084 10.6927 15.4867C10.5948 15.4651 10.5023 15.4255 10.4205 15.3675Z" fill="#3751C8"/>
</svg>
