<svg width="24" height="24" viewBox="0 0 24 24" fill="none" xmlns="http://www.w3.org/2000/svg">
<path d="M7.842 2.5392C6.594 2.2224 5.286 2.3568 4.2612 2.9304C3.2172 3.5136 2.4852 4.548 2.4492 5.9316C2.394 8.094 2.8944 10.9956 4.8816 14.4012C6.8436 17.7648 9.0096 19.7808 10.8072 20.9784C11.9424 21.7356 13.1964 21.756 14.268 21.2628C15.324 20.7768 16.1808 19.806 16.626 18.6024C16.7366 18.303 16.7811 17.9832 16.7562 17.665C16.7313 17.3468 16.6378 17.0378 16.482 16.7592L15.3372 14.7168C14.9853 14.0882 14.4189 13.6072 13.7416 13.3618C13.0643 13.1163 12.3213 13.1228 11.6484 13.38L10.8492 13.686C10.4616 13.8336 10.1052 13.7652 9.9036 13.566C9.2256 12.9 8.7408 11.9964 8.5212 11.022C8.4516 10.7148 8.5932 10.3524 8.9316 10.0968L9.6528 9.552C10.2358 9.11204 10.6384 8.47447 10.7848 7.75889C10.9313 7.04331 10.8117 6.29887 10.4484 5.6652L9.282 3.6312C9.12742 3.36196 8.92029 3.12654 8.67291 2.93895C8.42553 2.75135 8.14296 2.61541 7.842 2.5392ZM3.6492 5.964C3.6732 5.0352 4.1436 4.3716 4.8468 3.978C5.5692 3.5736 6.5556 3.45 7.5468 3.702C7.69204 3.73868 7.82841 3.80423 7.94778 3.89474C8.06715 3.98524 8.16707 4.09886 8.2416 4.2288L9.4068 6.2628C9.62474 6.64285 9.69659 7.08933 9.60889 7.51856C9.52118 7.94779 9.27995 8.33031 8.9304 8.5944L8.2092 9.1392C7.5852 9.6096 7.1532 10.416 7.35 11.286C7.6164 12.4644 8.2056 13.5816 9.0624 14.4228C9.6888 15.0372 10.5816 15.0732 11.2776 14.8068L12.0768 14.5008C12.4806 14.3462 12.9265 14.3422 13.3331 14.4894C13.7396 14.6366 14.0796 14.9252 14.2908 15.3024L15.4344 17.346C15.5784 17.6028 15.6024 17.91 15.5004 18.186C15.1524 19.128 14.4984 19.8348 13.7664 20.172C13.05 20.502 12.24 20.4924 11.4732 19.98C9.828 18.8832 7.7892 17.0028 5.9172 13.7964C4.044 10.5804 3.6 7.8996 3.6504 5.964M13.3764 9.7752C13.3191 9.83055 13.2734 9.89676 13.2419 9.96996C13.2105 10.0432 13.1939 10.1219 13.1933 10.2016C13.1926 10.2812 13.2077 10.3602 13.2379 10.434C13.2681 10.5077 13.3126 10.5747 13.369 10.631C13.4253 10.6874 13.4923 10.7319 13.566 10.7621C13.6398 10.7923 13.7188 10.8074 13.7984 10.8068C13.8781 10.8061 13.9568 10.7895 14.03 10.7581C14.1032 10.7266 14.1695 10.6809 14.2248 10.6236L20.4 4.4472V9C20.4 9.15913 20.4632 9.31174 20.5757 9.42426C20.6883 9.53679 20.8409 9.6 21 9.6C21.1591 9.6 21.3117 9.53679 21.4243 9.42426C21.5368 9.31174 21.6 9.15913 21.6 9V3C21.6 2.84087 21.5368 2.68826 21.4243 2.57574C21.3117 2.46322 21.1591 2.4 21 2.4H15C14.8409 2.4 14.6883 2.46322 14.5757 2.57574C14.4632 2.68826 14.4 2.84087 14.4 3C14.4 3.15913 14.4632 3.31174 14.5757 3.42427C14.6883 3.53679 14.8409 3.6 15 3.6H19.5516L13.3764 9.7752Z" fill="#3751C8"/>
</svg>
